<svg xmlns="http://www.w3.org/2000/svg" viewBox="0 0 297.77 297.77" xml:space="preserve"><path d="M207.218 255.77h-3.369c2.214-3.337 8.32-14.536-.712-25.6-8.9-10.905-25.129-39.546-24.438-64.4h3.519c4.418 0 7.667-3.582 7.667-8v-1a8 8 0 0 0-8-8 8 8 0 0 0 8-8v-1c0-4.418-3.249-8-7.667-8h-4.626c-2.064-21.741 1.078-43.054 5.959-54.666 1.86-4.425 4.118-7.79 6.296-10.334h1.371c4.418 0 7.667-3.582 7.667-8v-1c0-4.418-3.249-8-7.667-8h-9.8c-1.803-10.896-8.998-19.966-18.755-24.383a16.16 16.16 0 0 0 2.829-9.154C165.492 7.267 158.227 0 149.26 0s-16.234 7.267-16.234 16.232c0 3.385 1.037 6.525 2.809 9.127-9.788 4.406-17.01 13.49-18.816 24.41h-10.8c-4.418 0-8.333 3.582-8.333 8v1c0 4.418 3.915 8 8.333 8h2.371c2.178 2.544 4.436 5.909 6.296 10.334 4.881 11.612 8.023 32.925 5.959 54.666h-4.626c-4.418 0-8.333 3.582-8.333 8v1a8 8 0 0 0 8 8 8 8 0 0 0-8 8v1c0 4.418 3.915 8 8.333 8h3.602c.692 24.854-15.536 53.495-24.438 64.4-9.031 11.063-2.926 22.263-.712 25.6h-3.452c-4.418 0-8.333 3.582-8.333 8v9c0 4.078 3 7.438 7 7.931v17.069h118V280.7c4-.493 7-3.853 7-7.931v-9c-.001-4.417-3.25-7.999-7.668-7.999z" fill="#fff" stroke="#000" stroke-width="4"/></svg>